<svg width="310" height="84" viewBox="0 0 310 84" fill="none" xmlns="http://www.w3.org/2000/svg">
<g filter="url(#filter0_d_0_119)">
<rect x="5" y="5" width="300" height="74" rx="3" fill="#F9F9F9"/>
<rect x="5.5" y="5.5" width="299" height="73" rx="2.5" stroke="#D3D3D3"/>
</g>
<path d="M238.237 55.5925C238.101 55.5697 237.952 55.5583 237.793 55.5583C237.201 55.5583 236.799 55.8106 236.587 56.3152V60.0652H235.684V54.782H236.562L236.577 55.3923C236.873 54.9203 237.293 54.6843 237.837 54.6843C238.013 54.6843 238.146 54.7071 238.237 54.7527V55.5925Z" fill="#555555"/>
<path d="M241.167 60.1628C240.451 60.1628 239.868 59.9285 239.419 59.4597C238.97 58.9877 238.745 58.3578 238.745 57.5701V57.4041C238.745 56.88 238.844 56.4128 239.043 56.0027C239.245 55.5893 239.525 55.267 239.883 55.0359C240.244 54.8015 240.635 54.6843 241.055 54.6843C241.742 54.6843 242.275 54.9106 242.656 55.363C243.037 55.8155 243.228 56.4633 243.228 57.3064V57.6824H239.648C239.661 58.2032 239.813 58.6248 240.103 58.947C240.396 59.266 240.767 59.4255 241.216 59.4255C241.535 59.4255 241.805 59.3604 242.026 59.2302C242.248 59.1 242.441 58.9275 242.607 58.7126L243.159 59.1423C242.716 59.8227 242.052 60.1628 241.167 60.1628ZM241.055 55.4265C240.69 55.4265 240.384 55.56 240.137 55.8269C239.889 56.0906 239.736 56.4617 239.678 56.9402H242.324V56.8718C242.298 56.4128 242.174 56.058 241.953 55.8074C241.732 55.5535 241.432 55.4265 241.055 55.4265Z" fill="#555555"/>
<path d="M249.648 57.8093C249.561 58.5613 249.282 59.1423 248.813 59.5525C248.348 59.9594 247.728 60.1628 246.953 60.1628C246.113 60.1628 245.439 59.8617 244.932 59.2595C244.427 58.6573 244.175 57.8516 244.175 56.8425V56.1589C244.175 55.4981 244.292 54.9171 244.526 54.4158C244.764 53.9145 245.099 53.5304 245.532 53.2634C245.965 52.9932 246.466 52.8582 247.036 52.8582C247.791 52.8582 248.397 53.0697 248.853 53.4929C249.308 53.9128 249.574 54.4955 249.648 55.241H248.706C248.625 54.6746 248.447 54.2644 248.174 54.0105C247.904 53.7566 247.524 53.6296 247.036 53.6296C246.437 53.6296 245.967 53.851 245.625 54.2937C245.286 54.7364 245.117 55.3663 245.117 56.1833V56.8718C245.117 57.6433 245.278 58.2569 245.601 58.7126C245.923 59.1684 246.374 59.3962 246.953 59.3962C247.474 59.3962 247.873 59.2791 248.149 59.0447C248.429 58.807 248.615 58.3953 248.706 57.8093H249.648Z" fill="#555555"/>
<path d="M254.858 58.2097H251.88L251.211 60.0652H250.244L252.959 52.9558H253.779L256.499 60.0652H255.537L254.858 58.2097ZM252.163 57.4382H254.58L253.369 54.113L252.163 57.4382Z" fill="#555555"/>
<path d="M258.394 57.282V60.0652H257.456V52.9558H260.078C260.856 52.9558 261.465 53.1544 261.904 53.5515C262.347 53.9486 262.568 54.4744 262.568 55.1287C262.568 55.8188 262.352 56.351 261.919 56.7253C261.489 57.0964 260.872 57.282 260.068 57.282H258.394ZM258.394 56.5154H260.078C260.579 56.5154 260.964 56.3982 261.23 56.1638C261.497 55.9262 261.631 55.5844 261.631 55.1384C261.631 54.7153 261.497 54.3767 261.23 54.1228C260.964 53.8689 260.597 53.7371 260.132 53.7273H258.394V56.5154Z" fill="#555555"/>
<path d="M268.677 53.7273H266.392V60.0652H265.459V53.7273H263.179V52.9558H268.677V53.7273Z" fill="#555555"/>
<path d="M274.824 57.8093C274.736 58.5613 274.458 59.1423 273.989 59.5525C273.524 59.9594 272.904 60.1628 272.129 60.1628C271.289 60.1628 270.615 59.8617 270.107 59.2595C269.603 58.6573 269.351 57.8516 269.351 56.8425V56.1589C269.351 55.4981 269.468 54.9171 269.702 54.4158C269.94 53.9145 270.275 53.5304 270.708 53.2634C271.141 52.9932 271.642 52.8582 272.212 52.8582C272.967 52.8582 273.573 53.0697 274.028 53.4929C274.484 53.9128 274.749 54.4955 274.824 55.241H273.882C273.8 54.6746 273.623 54.2644 273.35 54.0105C273.079 53.7566 272.7 53.6296 272.212 53.6296C271.613 53.6296 271.143 53.851 270.801 54.2937C270.462 54.7364 270.293 55.3663 270.293 56.1833V56.8718C270.293 57.6433 270.454 58.2569 270.776 58.7126C271.099 59.1684 271.549 59.3962 272.129 59.3962C272.65 59.3962 273.049 59.2791 273.325 59.0447C273.605 58.807 273.791 58.3953 273.882 57.8093H274.824Z" fill="#555555"/>
<path d="M281.572 60.0652H280.63V56.7791H277.046V60.0652H276.108V52.9558H277.046V56.0125H280.63V52.9558H281.572V60.0652Z" fill="#555555"/>
<path d="M287.251 58.2097H284.272L283.604 60.0652H282.637L285.352 52.9558H286.172L288.892 60.0652H287.93L287.251 58.2097ZM284.556 57.4382H286.973L285.762 54.113L284.556 57.4382Z" fill="#555555"/>
<path d="M234.75 68.6042V70.8308H234V65.1433H236.098C236.72 65.1433 237.207 65.3022 237.559 65.6199C237.913 65.9376 238.09 66.3582 238.09 66.8816C238.09 67.4337 237.917 67.8595 237.57 68.1589C237.227 68.4558 236.733 68.6042 236.09 68.6042H234.75ZM234.75 67.991H236.098C236.499 67.991 236.806 67.8972 237.02 67.7097C237.233 67.5196 237.34 67.2462 237.34 66.8894C237.34 66.5509 237.233 66.28 237.02 66.0769C236.806 65.8738 236.513 65.7683 236.141 65.7605H234.75V67.991Z" fill="#555555"/>
<path d="M240.977 67.2527C240.867 67.2345 240.749 67.2253 240.621 67.2253C240.147 67.2253 239.826 67.4272 239.656 67.8308V70.8308H238.934V66.6042H239.637L239.648 67.0925C239.885 66.7149 240.221 66.5261 240.656 66.5261C240.797 66.5261 240.904 66.5444 240.977 66.5808V67.2527Z" fill="#555555"/>
<path d="M242.43 70.8308H241.707V66.6042H242.43V70.8308ZM241.648 65.4832C241.648 65.366 241.684 65.267 241.754 65.1863C241.827 65.1055 241.934 65.0652 242.074 65.0652C242.215 65.0652 242.322 65.1055 242.395 65.1863C242.467 65.267 242.504 65.366 242.504 65.4832C242.504 65.6003 242.467 65.698 242.395 65.7761C242.322 65.8542 242.215 65.8933 242.074 65.8933C241.934 65.8933 241.827 65.8542 241.754 65.7761C241.684 65.698 241.648 65.6003 241.648 65.4832Z" fill="#555555"/>
<path d="M244.984 69.8503L246.031 66.6042H246.77L245.254 70.8308H244.703L243.172 66.6042H243.91L244.984 69.8503Z" fill="#555555"/>
<path d="M250.012 70.8308C249.97 70.7475 249.936 70.599 249.91 70.3855C249.574 70.7345 249.173 70.9089 248.707 70.9089C248.29 70.9089 247.948 70.7917 247.68 70.5574C247.414 70.3204 247.281 70.0209 247.281 69.6589C247.281 69.2188 247.448 68.8777 247.781 68.6355C248.117 68.3907 248.589 68.2683 249.195 68.2683H249.898V67.9363C249.898 67.6837 249.823 67.4832 249.672 67.3347C249.521 67.1837 249.298 67.1082 249.004 67.1082C248.746 67.1082 248.53 67.1733 248.355 67.3035C248.181 67.4337 248.094 67.5912 248.094 67.7761H247.367C247.367 67.5652 247.441 67.3621 247.59 67.1667C247.741 66.9688 247.944 66.8126 248.199 66.698C248.457 66.5834 248.74 66.5261 249.047 66.5261C249.534 66.5261 249.915 66.6485 250.191 66.8933C250.467 67.1355 250.611 67.4701 250.621 67.8972V69.8425C250.621 70.2306 250.671 70.5391 250.77 70.7683V70.8308H250.012ZM248.812 70.28C249.039 70.28 249.254 70.2214 249.457 70.1042C249.66 69.9871 249.807 69.8347 249.898 69.6472V68.78H249.332C248.447 68.78 248.004 69.0391 248.004 69.5574C248.004 69.7839 248.079 69.961 248.23 70.0886C248.382 70.2162 248.576 70.28 248.812 70.28Z" fill="#555555"/>
<path d="M253.449 70.3191C253.707 70.3191 253.932 70.241 254.125 70.0847C254.318 69.9285 254.424 69.7332 254.445 69.4988H255.129C255.116 69.741 255.033 69.9714 254.879 70.1902C254.725 70.4089 254.52 70.5834 254.262 70.7136C254.007 70.8438 253.736 70.9089 253.449 70.9089C252.874 70.9089 252.415 70.7175 252.074 70.3347C251.736 69.9493 251.566 69.4233 251.566 68.7566V68.6355C251.566 68.224 251.642 67.8582 251.793 67.5378C251.944 67.2175 252.16 66.9688 252.441 66.7917C252.725 66.6147 253.06 66.5261 253.445 66.5261C253.919 66.5261 254.312 66.668 254.625 66.9519C254.94 67.2358 255.108 67.6042 255.129 68.0574H254.445C254.424 67.7839 254.32 67.56 254.133 67.3855C253.948 67.2084 253.719 67.1199 253.445 67.1199C253.078 67.1199 252.793 67.2527 252.59 67.5183C252.389 67.7813 252.289 68.1628 252.289 68.6628V68.7996C252.289 69.2865 252.389 69.6615 252.59 69.9246C252.79 70.1876 253.077 70.3191 253.449 70.3191Z" fill="#555555"/>
<path d="M257.324 69.7722L258.309 66.6042H259.082L257.383 71.4832C257.12 72.1863 256.702 72.5378 256.129 72.5378L255.992 72.5261L255.723 72.4753V71.8894L255.918 71.905C256.163 71.905 256.353 71.8556 256.488 71.7566C256.626 71.6576 256.74 71.4766 256.828 71.2136L256.988 70.7839L255.48 66.6042H256.27L257.324 69.7722Z" fill="#555555"/>
<path d="M271.93 65.7605H270.102V70.8308H269.355V65.7605H267.531V65.1433H271.93V65.7605Z" fill="#555555"/>
<path d="M274.023 70.9089C273.451 70.9089 272.984 70.7214 272.625 70.3464C272.266 69.9688 272.086 69.4649 272.086 68.8347V68.7019C272.086 68.2826 272.165 67.9089 272.324 67.5808C272.486 67.2501 272.71 66.9923 272.996 66.8074C273.285 66.6199 273.598 66.5261 273.934 66.5261C274.483 66.5261 274.91 66.7071 275.215 67.0691C275.52 67.4311 275.672 67.9493 275.672 68.6238V68.9246H272.809C272.819 69.3412 272.94 69.6785 273.172 69.9363C273.406 70.1915 273.703 70.3191 274.062 70.3191C274.318 70.3191 274.534 70.267 274.711 70.1628C274.888 70.0587 275.043 69.9207 275.176 69.7488L275.617 70.0925C275.263 70.6368 274.732 70.9089 274.023 70.9089ZM273.934 67.1199C273.642 67.1199 273.397 67.2266 273.199 67.4402C273.001 67.6511 272.879 67.948 272.832 68.3308H274.949V68.2761C274.928 67.9089 274.829 67.6251 274.652 67.4246C274.475 67.2214 274.236 67.1199 273.934 67.1199Z" fill="#555555"/>
<path d="M278.555 67.2527C278.445 67.2345 278.327 67.2253 278.199 67.2253C277.725 67.2253 277.404 67.4272 277.234 67.8308V70.8308H276.512V66.6042H277.215L277.227 67.0925C277.464 66.7149 277.799 66.5261 278.234 66.5261C278.375 66.5261 278.482 66.5444 278.555 66.5808V67.2527Z" fill="#555555"/>
<path d="M279.902 66.6042L279.922 67.073C280.232 66.7084 280.65 66.5261 281.176 66.5261C281.767 66.5261 282.169 66.7527 282.383 67.2058C282.523 67.0027 282.706 66.8386 282.93 66.7136C283.156 66.5886 283.423 66.5261 283.73 66.5261C284.658 66.5261 285.129 67.017 285.145 67.9988V70.8308H284.422V68.0417C284.422 67.7397 284.353 67.5144 284.215 67.366C284.077 67.2149 283.845 67.1394 283.52 67.1394C283.251 67.1394 283.029 67.2201 282.852 67.3816C282.674 67.5404 282.572 67.7553 282.543 68.0261V70.8308H281.816V68.0613C281.816 67.4467 281.516 67.1394 280.914 67.1394C280.44 67.1394 280.116 67.3412 279.941 67.7449V70.8308H279.219V66.6042H279.902Z" fill="#555555"/>
<path d="M288.699 69.7097C288.699 69.5144 288.625 69.3634 288.477 69.2566C288.331 69.1472 288.074 69.0535 287.707 68.9753C287.342 68.8972 287.052 68.8035 286.836 68.6941C286.622 68.5847 286.464 68.4545 286.359 68.3035C286.258 68.1524 286.207 67.9727 286.207 67.7644C286.207 67.418 286.353 67.1251 286.645 66.8855C286.939 66.6459 287.314 66.5261 287.77 66.5261C288.249 66.5261 288.637 66.6498 288.934 66.8972C289.233 67.1446 289.383 67.461 289.383 67.8464H288.656C288.656 67.6485 288.572 67.4779 288.402 67.3347C288.236 67.1915 288.025 67.1199 287.77 67.1199C287.507 67.1199 287.301 67.1772 287.152 67.2917C287.004 67.4063 286.93 67.5561 286.93 67.741C286.93 67.9154 286.999 68.047 287.137 68.1355C287.275 68.224 287.523 68.3087 287.883 68.3894C288.245 68.4701 288.538 68.5665 288.762 68.6785C288.986 68.7904 289.151 68.9259 289.258 69.0847C289.367 69.241 289.422 69.4324 289.422 69.6589C289.422 70.0365 289.271 70.3399 288.969 70.5691C288.667 70.7957 288.275 70.9089 287.793 70.9089C287.454 70.9089 287.155 70.849 286.895 70.7292C286.634 70.6095 286.43 70.4428 286.281 70.2292C286.135 70.0131 286.062 69.78 286.062 69.53H286.785C286.798 69.7722 286.895 69.9649 287.074 70.1082C287.257 70.2488 287.496 70.3191 287.793 70.3191C288.066 70.3191 288.285 70.2644 288.449 70.155C288.616 70.0431 288.699 69.8946 288.699 69.7097Z" fill="#555555"/>
<path d="M264.328 69.03H262.277V68.2644H264.328V69.03Z" fill="black"/>
<g filter="url(#filter1_d_0_119)">
<path d="M273.401 22.403C273.266 22.2343 273.126 22.0683 272.982 21.9052C270.688 19.2992 267.521 17.6192 264.077 17.1799C260.632 16.7406 257.146 17.5722 254.271 19.5188L258.387 25.5993C259.783 24.6542 261.476 24.2504 263.148 24.4637C264.82 24.677 266.357 25.4926 267.472 26.7579C267.721 27.0415 267.946 27.3433 268.144 27.6599L264.5 31.3037H276.61V19.1943L273.401 22.403Z" fill="#1C3AA9"/>
</g>
<g filter="url(#filter2_d_0_119)">
<path d="M262.238 17.0658H250.129L253.301 20.2376C250.931 22.1531 249.227 24.7852 248.457 27.7555C247.585 31.1167 247.969 34.6804 249.536 37.779L256.089 34.4648C255.328 32.9605 255.142 31.2303 255.565 29.5984C255.988 27.9666 256.991 26.5449 258.387 25.5998C258.442 25.5625 258.498 25.5261 258.554 25.4905L262.238 29.1751V17.0658Z" fill="#4285F4"/>
</g>
<g filter="url(#filter3_d_0_119)">
<path d="M248 31.4368H260.109L256.451 35.0954C257.227 36.297 258.359 37.2345 259.698 37.7702C261.263 38.3964 263.003 38.4304 264.592 37.8659C266.18 37.3014 267.509 36.1772 268.328 34.7037L273.624 39.9865C271.954 42.1784 269.674 43.8525 267.05 44.7849C263.778 45.9476 260.195 45.8775 256.971 44.5877C254.703 43.6804 252.722 42.2134 251.202 40.3445L248 43.5461V31.4368Z" fill="#ABABAB"/>
</g>
<path d="M61.3072 48.8715H60V39.5141H61.3072V48.8715Z" fill="black"/>
<path d="M63.5949 42.1491L62.88 41.6864C63.3021 41.1294 63.52 40.5424 63.5336 39.9254V39H64.7796V39.8355C64.775 40.2639 64.6616 40.6924 64.4391 41.1208C64.2213 41.545 63.9399 41.8877 63.5949 42.1491Z" fill="black"/>
<path d="M67.3464 41.9177L67.3804 42.6889C67.9206 42.0891 68.6491 41.7892 69.566 41.7892C70.5963 41.7892 71.2976 42.162 71.6698 42.9075C71.9149 42.5733 72.2326 42.3033 72.623 42.0977C73.0179 41.892 73.4831 41.7892 74.0187 41.7892C75.6346 41.7892 76.4562 42.5968 76.4834 44.2121V48.8715H75.2238V44.2828C75.2238 43.7858 75.1035 43.4152 74.863 43.171C74.6224 42.9225 74.2184 42.7982 73.6511 42.7982C73.1835 42.7982 72.7955 42.931 72.4868 43.1967C72.1782 43.458 71.9989 43.8115 71.9489 44.2571V48.8715H70.6826V44.3149C70.6826 43.3038 70.1583 42.7982 69.1098 42.7982C68.2837 42.7982 67.7186 43.1302 67.4145 43.7943V48.8715H66.1549V41.9177H67.3464Z" fill="black"/>
<path d="M83.04 41.9177L83.0809 42.7918C83.6437 42.1234 84.379 41.7892 85.2868 41.7892C86.8437 41.7892 87.6289 42.6183 87.6426 44.2763V48.8715H86.383V44.2699C86.3784 43.7686 86.2559 43.398 86.0153 43.1581C85.7793 42.9182 85.4094 42.7982 84.9055 42.7982C84.497 42.7982 84.1384 42.901 83.8298 43.1067C83.5211 43.3123 83.2806 43.5823 83.1081 43.9165V48.8715H81.8485V41.9177H83.04Z" fill="black"/>
<path d="M89.2085 45.3303C89.2085 44.6491 89.3492 44.0364 89.6306 43.4923C89.9166 42.9482 90.3115 42.5283 90.8153 42.2326C91.3237 41.937 91.9024 41.7892 92.5515 41.7892C93.5546 41.7892 94.3648 42.117 94.9821 42.7725C95.604 43.428 95.9149 44.2999 95.9149 45.3882V45.4717C95.9149 46.1487 95.7765 46.7571 95.4996 47.2969C95.2272 47.8325 94.8346 48.2502 94.3217 48.5501C93.8133 48.85 93.2278 49 92.5651 49C91.5665 49 90.7563 48.6722 90.1345 48.0167C89.5172 47.3612 89.2085 46.4936 89.2085 45.4139V45.3303ZM90.4749 45.4717C90.4749 46.2429 90.6633 46.862 91.04 47.329C91.4213 47.7961 91.9296 48.0296 92.5651 48.0296C93.2051 48.0296 93.7135 47.7939 94.0902 47.3226C94.4669 46.847 94.6553 46.1829 94.6553 45.3303C94.6553 44.5677 94.4624 43.9507 94.0766 43.4794C93.6953 43.0039 93.187 42.7661 92.5515 42.7661C91.9296 42.7661 91.4281 42.9996 91.0468 43.4666C90.6655 43.9336 90.4749 44.602 90.4749 45.4717Z" fill="black"/>
<path d="M99.2034 40.2339V41.9177H100.579V42.8368H99.2034V47.1491C99.2034 47.4276 99.2647 47.6375 99.3872 47.7789C99.5098 47.916 99.7186 47.9846 100.014 47.9846C100.159 47.9846 100.359 47.9589 100.613 47.9075V48.8715C100.281 48.9572 99.9591 49 99.646 49C99.0831 49 98.6587 48.8393 98.3728 48.518C98.0868 48.1967 97.9438 47.7404 97.9438 47.1491V42.8368H96.6026V41.9177H97.9438V40.2339H99.2034Z" fill="black"/>
<path d="M110.063 48.8715C109.99 48.7344 109.931 48.4901 109.886 48.1388C109.3 48.7129 108.601 49 107.789 49C107.063 49 106.466 48.8072 105.998 48.4216C105.535 48.0317 105.304 47.539 105.304 46.9434C105.304 46.2194 105.594 45.6581 106.175 45.2596C106.761 44.8569 107.582 44.6555 108.64 44.6555H109.866V44.1093C109.866 43.6937 109.734 43.3638 109.471 43.1195C109.207 42.871 108.819 42.7468 108.306 42.7468C107.857 42.7468 107.48 42.8539 107.176 43.0681C106.872 43.2823 106.72 43.5416 106.72 43.8458H105.454C105.454 43.4987 105.583 43.1645 105.842 42.8432C106.105 42.5176 106.459 42.2605 106.904 42.072C107.353 41.8835 107.846 41.7892 108.381 41.7892C109.23 41.7892 109.895 41.9906 110.376 42.3933C110.857 42.7918 111.107 43.3423 111.125 44.045V47.2455C111.125 47.8839 111.211 48.3916 111.384 48.7686V48.8715H110.063ZM107.973 47.9653C108.368 47.9653 108.742 47.8689 109.096 47.6761C109.45 47.4833 109.707 47.2326 109.866 46.9242V45.4974H108.878C107.335 45.4974 106.563 45.9237 106.563 46.7763C106.563 47.1491 106.695 47.4404 106.958 47.6504C107.222 47.8603 107.56 47.9653 107.973 47.9653Z" fill="black"/>
<path d="M120.119 42.9846C119.929 42.9546 119.722 42.9396 119.5 42.9396C118.673 42.9396 118.113 43.2716 117.818 43.9357V48.8715H116.558V41.9177H117.784L117.804 42.7211C118.217 42.0998 118.803 41.7892 119.561 41.7892C119.806 41.7892 119.992 41.8192 120.119 41.8792V42.9846Z" fill="black"/>
<path d="M120.814 45.3303C120.814 44.6491 120.954 44.0364 121.236 43.4923C121.522 42.9482 121.917 42.5283 122.42 42.2326C122.929 41.937 123.508 41.7892 124.157 41.7892C125.16 41.7892 125.97 42.117 126.587 42.7725C127.209 43.428 127.52 44.2999 127.52 45.3882V45.4717C127.52 46.1487 127.382 46.7571 127.105 47.2969C126.832 47.8325 126.44 48.2502 125.927 48.5501C125.418 48.85 124.833 49 124.17 49C123.172 49 122.361 48.6722 121.74 48.0167C121.122 47.3612 120.814 46.4936 120.814 45.4139V45.3303ZM122.08 45.4717C122.08 46.2429 122.268 46.862 122.645 47.329C123.026 47.7961 123.535 48.0296 124.17 48.0296C124.81 48.0296 125.319 47.7939 125.695 47.3226C126.072 46.847 126.26 46.1829 126.26 45.3303C126.26 44.5677 126.068 43.9507 125.682 43.4794C125.3 43.0039 124.792 42.7661 124.157 42.7661C123.535 42.7661 123.033 42.9996 122.652 43.4666C122.271 43.9336 122.08 44.602 122.08 45.4717Z" fill="black"/>
<path d="M135.336 45.4717C135.336 46.5343 135.077 47.389 134.56 48.036C134.043 48.6787 133.348 49 132.477 49C131.546 49 130.827 48.6894 130.318 48.0681L130.257 48.8715H129.1V39H130.359V42.6825C130.868 42.087 131.569 41.7892 132.463 41.7892C133.357 41.7892 134.058 42.1084 134.567 42.7468C135.08 43.3852 135.336 44.2592 135.336 45.3689V45.4717ZM134.077 45.3368C134.077 44.527 133.911 43.9015 133.58 43.4602C133.248 43.0189 132.772 42.7982 132.15 42.7982C131.319 42.7982 130.722 43.1624 130.359 43.8907V46.8985C130.745 47.6268 131.346 47.991 132.163 47.991C132.767 47.991 133.237 47.7704 133.573 47.329C133.909 46.8877 134.077 46.2237 134.077 45.3368Z" fill="black"/>
<path d="M136.596 45.3303C136.596 44.6491 136.736 44.0364 137.018 43.4923C137.304 42.9482 137.699 42.5283 138.203 42.2326C138.711 41.937 139.29 41.7892 139.939 41.7892C140.942 41.7892 141.752 42.117 142.369 42.7725C142.991 43.428 143.302 44.2999 143.302 45.3882V45.4717C143.302 46.1487 143.164 46.7571 142.887 47.2969C142.614 47.8325 142.222 48.2502 141.709 48.5501C141.201 48.85 140.615 49 139.952 49C138.954 49 138.144 48.6722 137.522 48.0167C136.904 47.3612 136.596 46.4936 136.596 45.4139V45.3303ZM137.862 45.4717C137.862 46.2429 138.05 46.862 138.427 47.329C138.809 47.7961 139.317 48.0296 139.952 48.0296C140.592 48.0296 141.101 47.7939 141.477 47.3226C141.854 46.847 142.043 46.1829 142.043 45.3303C142.043 44.5677 141.85 43.9507 141.464 43.4794C141.083 43.0039 140.574 42.7661 139.939 42.7661C139.317 42.7661 138.815 42.9996 138.434 43.4666C138.053 43.9336 137.862 44.602 137.862 45.4717Z" fill="black"/>
<path d="M146.591 40.2339V41.9177H147.966V42.8368H146.591V47.1491C146.591 47.4276 146.652 47.6375 146.774 47.7789C146.897 47.916 147.106 47.9846 147.401 47.9846C147.546 47.9846 147.746 47.9589 148 47.9075V48.8715C147.669 48.9572 147.346 49 147.033 49C146.47 49 146.046 48.8393 145.76 48.518C145.474 48.1967 145.331 47.7404 145.331 47.1491V42.8368H143.99V41.9177H145.331V40.2339H146.591Z" fill="black"/>
<path fill-rule="evenodd" clip-rule="evenodd" d="M44.9259 32H21.0741C21.0332 32 21 32.0332 21 32.0741V55.9259C21 55.9668 21.0332 56 21.0741 56H44.9259C44.9668 56 45 55.9668 45 55.9259V32.0741C45 32.0332 44.9668 32 44.9259 32ZM44.9259 30H21.0741C19.9286 30 19 30.9286 19 32.0741V55.9259C19 57.0714 19.9286 58 21.0741 58H44.9259C46.0714 58 47 57.0714 47 55.9259V32.0741C47 30.9286 46.0714 30 44.9259 30Z" fill="#C1C1C1"/>
<rect x="21" y="32" width="24" height="24" fill="white"/>
<defs>
<filter id="filter0_d_0_119" x="0" y="0" width="310" height="84" filterUnits="userSpaceOnUse" color-interpolation-filters="sRGB">
<feFlood flood-opacity="0" result="BackgroundImageFix"/>
<feColorMatrix in="SourceAlpha" type="matrix" values="0 0 0 0 0 0 0 0 0 0 0 0 0 0 0 0 0 0 127 0" result="hardAlpha"/>
<feMorphology radius="1" operator="dilate" in="SourceAlpha" result="effect1_dropShadow_0_119"/>
<feOffset/>
<feGaussianBlur stdDeviation="2"/>
<feColorMatrix type="matrix" values="0 0 0 0 0 0 0 0 0 0 0 0 0 0 0 0 0 0 0.08 0"/>
<feBlend mode="normal" in2="BackgroundImageFix" result="effect1_dropShadow_0_119"/>
<feBlend mode="normal" in="SourceGraphic" in2="effect1_dropShadow_0_119" result="shape"/>
</filter>
<filter id="filter1_d_0_119" x="253.271" y="16.0652" width="24.3392" height="16.2385" filterUnits="userSpaceOnUse" color-interpolation-filters="sRGB">
<feFlood flood-opacity="0" result="BackgroundImageFix"/>
<feColorMatrix in="SourceAlpha" type="matrix" values="0 0 0 0 0 0 0 0 0 0 0 0 0 0 0 0 0 0 127 0" result="hardAlpha"/>
<feOffset/>
<feGaussianBlur stdDeviation="0.5"/>
<feColorMatrix type="matrix" values="0 0 0 0 0 0 0 0 0 0 0 0 0 0 0 0 0 0 0.38 0"/>
<feBlend mode="normal" in2="BackgroundImageFix" result="effect1_dropShadow_0_119"/>
<feBlend mode="normal" in="SourceGraphic" in2="effect1_dropShadow_0_119" result="shape"/>
</filter>
<filter id="filter2_d_0_119" x="247" y="16.0658" width="16.2385" height="22.7132" filterUnits="userSpaceOnUse" color-interpolation-filters="sRGB">
<feFlood flood-opacity="0" result="BackgroundImageFix"/>
<feColorMatrix in="SourceAlpha" type="matrix" values="0 0 0 0 0 0 0 0 0 0 0 0 0 0 0 0 0 0 127 0" result="hardAlpha"/>
<feOffset/>
<feGaussianBlur stdDeviation="0.5"/>
<feColorMatrix type="matrix" values="0 0 0 0 0 0 0 0 0 0 0 0 0 0 0 0 0 0 0.38 0"/>
<feBlend mode="normal" in2="BackgroundImageFix" result="effect1_dropShadow_0_119"/>
<feBlend mode="normal" in="SourceGraphic" in2="effect1_dropShadow_0_119" result="shape"/>
</filter>
<filter id="filter3_d_0_119" x="247" y="30.4368" width="27.6238" height="16.1719" filterUnits="userSpaceOnUse" color-interpolation-filters="sRGB">
<feFlood flood-opacity="0" result="BackgroundImageFix"/>
<feColorMatrix in="SourceAlpha" type="matrix" values="0 0 0 0 0 0 0 0 0 0 0 0 0 0 0 0 0 0 127 0" result="hardAlpha"/>
<feOffset/>
<feGaussianBlur stdDeviation="0.5"/>
<feColorMatrix type="matrix" values="0 0 0 0 0 0 0 0 0 0 0 0 0 0 0 0 0 0 0.38 0"/>
<feBlend mode="normal" in2="BackgroundImageFix" result="effect1_dropShadow_0_119"/>
<feBlend mode="normal" in="SourceGraphic" in2="effect1_dropShadow_0_119" result="shape"/>
</filter>
</defs>
</svg>
