<svg width="209" height="52" viewBox="0 0 209 52" fill="none" xmlns="http://www.w3.org/2000/svg">
<path d="M0 32.1827V0H6.77342V32.1827H0Z" fill="white"/>
<path d="M25.0411 32.1832V12.2138C25.0687 11.827 24.9959 11.4397 24.8297 11.0893C24.7638 10.9744 24.6674 10.8799 24.5511 10.8164C24.4348 10.7529 24.3031 10.7228 24.1708 10.7295C24.0232 10.7177 23.8749 10.7418 23.7386 10.7998C23.6023 10.8578 23.4821 10.9478 23.3882 11.0624C23.2353 11.2737 23.1633 11.6583 23.1633 12.2138V32.1832H17.3591V12.2138C17.3859 11.828 17.3164 11.4416 17.1567 11.0893C17.0887 10.9733 16.9892 10.8789 16.8699 10.8168C16.7506 10.7548 16.6162 10.7276 16.4821 10.7385C16.0953 10.7385 15.8277 10.8465 15.6793 11.0601C15.5309 11.2737 15.4544 11.656 15.4544 12.2115V32.1809H9.63672V5.94181H15.5016V7.33608C15.9432 6.84907 16.4717 6.44869 17.06 6.15545C17.6027 5.90547 18.1942 5.77948 18.7916 5.78664C19.4622 5.77656 20.1266 5.91559 20.7369 6.19368C21.392 6.52756 21.9792 6.98055 22.4684 7.52947C23.0236 6.98264 23.6726 6.54009 24.3844 6.22291C25.0432 5.9349 25.7545 5.78636 26.4736 5.78664C28.0238 5.78664 29.1429 6.28664 29.831 7.28661C30.5192 8.28658 30.8647 9.95445 30.8677 12.2902V32.1832H25.0411Z" fill="white"/>
<path d="M33.3634 14.8623V12.5213C33.3634 9.48993 33.7667 7.60992 34.5733 6.8813C35.3798 6.15269 37.2404 5.78763 40.1548 5.78613C43.1232 5.78613 44.9973 6.17369 45.7768 6.94878C46.5564 7.72387 46.9432 9.58138 46.9372 12.5213V32.1827H41.1128V31.0043C40.5809 31.4278 39.987 31.7668 39.352 32.0095C38.7445 32.2305 38.1026 32.3416 37.4562 32.3378C35.933 32.3378 34.8716 31.8933 34.2719 31.0043C33.6722 30.1153 33.3724 28.3162 33.3724 25.6072V23.03C33.3724 21.7797 33.5531 20.8382 33.9144 20.2055C34.2757 19.5728 34.9721 18.9537 36.0035 18.348L41.0746 15.3481V11.3407C41.0961 11.0671 41.0239 10.7943 40.8699 10.5671C40.7919 10.4796 40.6946 10.4113 40.5858 10.3676C40.4769 10.3239 40.3594 10.306 40.2425 10.3152C40.097 10.3014 39.9503 10.3233 39.8151 10.3789C39.6799 10.4346 39.5603 10.5223 39.4667 10.6346C39.3138 10.8482 39.2418 11.2642 39.2418 11.8827V14.8623H33.3634ZM41.0656 20.8824C40.355 21.1658 39.8707 21.4656 39.6128 21.7819C39.3565 22.099 39.2261 22.7152 39.2261 23.6305V26.2818C39.2261 26.8755 39.298 27.287 39.4397 27.5209C39.5243 27.6266 39.6309 27.7125 39.7521 27.7727C39.8733 27.833 40.0062 27.8661 40.1414 27.8697C40.2767 27.8734 40.4112 27.8474 40.5355 27.7938C40.6597 27.7402 40.7708 27.6601 40.8609 27.5591C40.9989 27.3522 41.0671 26.9265 41.0656 26.2818V20.8824Z" fill="white"/>
<path d="M62.966 33.7748C62.966 35.4015 62.5597 36.5529 61.7471 37.229C60.9346 37.9052 59.4766 38.244 57.3732 38.2455H49.8104V33.7321H55.79C56.3208 33.7321 56.6716 33.6512 56.8447 33.4892C57.0179 33.3273 57.1078 32.9968 57.1078 32.493V30.9189C56.6471 31.3547 56.1145 31.7077 55.5337 31.9623C54.9926 32.1927 54.4104 32.3112 53.8223 32.3109C52.2347 32.3109 51.102 31.8109 50.4244 30.8109C49.7467 29.8109 49.4087 27.9047 49.4102 25.0922V12.2897C49.4102 9.95544 49.755 8.28757 50.4446 7.2861C51.1343 6.28463 52.2587 5.78464 53.8178 5.78614C54.4062 5.78544 54.9885 5.90481 55.5292 6.13695C56.11 6.39157 56.6426 6.74457 57.1033 7.1804V5.9413H62.966V33.7748ZM55.2683 25.8365C55.2683 26.3793 55.3433 26.766 55.4932 26.9969C55.5751 27.1035 55.6799 27.1904 55.7998 27.2511C55.9197 27.3119 56.0518 27.345 56.1862 27.348C56.3206 27.351 56.4539 27.3239 56.5765 27.2686C56.699 27.2133 56.8076 27.1312 56.8942 27.0284C57.0351 26.814 57.1063 26.4175 57.1078 25.8388V12.2897C57.1078 11.7335 57.0329 11.3437 56.883 11.1203C56.7926 11.0008 56.6728 10.9067 56.5353 10.8472C56.3977 10.7877 56.2471 10.7648 56.0981 10.7808C55.9704 10.7748 55.8436 10.8052 55.7325 10.8685C55.6215 10.9318 55.5307 11.0254 55.4707 11.1383C55.3095 11.4996 55.2392 11.895 55.2661 12.2897L55.2683 25.8365Z" fill="white"/>
<path d="M73.1484 22.5465H79.0133V25.6027C79.0133 28.6011 78.6227 30.4751 77.8416 31.2247C77.0606 31.9743 75.206 32.3491 72.2781 32.3491C69.2707 32.3491 67.3809 31.9593 66.6088 31.1797C65.8367 30.4001 65.4469 28.5411 65.4395 25.6027V12.5213C65.4395 9.48993 65.842 7.60992 66.6471 6.8813C67.4521 6.15269 69.3134 5.78763 72.2309 5.78613C75.1963 5.78613 77.0703 6.17369 77.8529 6.94878C78.6355 7.72387 79.0223 9.58138 79.0133 12.5213V19.8952H71.3111V26.2818C71.3111 26.8755 71.3831 27.287 71.5247 27.5209C71.601 27.6385 71.7079 27.7331 71.8339 27.7945C71.9599 27.8559 72.1002 27.8818 72.2399 27.8695C72.3662 27.8765 72.4926 27.8549 72.6094 27.8063C72.7262 27.7576 72.8305 27.6831 72.9145 27.5884C73.0891 27.3586 73.1745 27.0734 73.1551 26.7855V22.5465H73.1484ZM73.1484 15.3863V11.8827C73.1484 11.283 73.0809 10.87 72.946 10.6436C72.8685 10.5306 72.7621 10.4405 72.6379 10.3828C72.5136 10.325 72.3762 10.3017 72.2399 10.3152C72.1143 10.3069 71.9883 10.325 71.8702 10.3684C71.752 10.4118 71.6443 10.4795 71.554 10.5671C71.3796 10.7708 71.2923 11.035 71.3111 11.3025V15.3863H73.1484Z" fill="white"/>
<path d="M81.5898 32.1827V0H89.3482C92.7275 0 94.8818 0.384548 95.8113 1.15364C96.7408 1.92273 97.2056 3.75776 97.2056 6.65873V14.7095C97.2056 17.6374 96.7378 19.4852 95.8023 20.2528C94.8668 21.0204 92.7282 21.4049 89.3865 21.4064H88.4015V32.185L81.5898 32.1827ZM88.4015 5.197V16.2162C88.478 16.2162 88.5881 16.2162 88.7298 16.2364C88.8715 16.2567 88.9749 16.2544 89.0402 16.2544C89.5551 16.2544 89.9059 16.1645 90.0948 15.9846C90.2837 15.8046 90.3737 15.4673 90.3737 14.9771V6.92634C90.3737 6.12876 90.2838 5.63852 90.1038 5.45562C89.9239 5.27272 89.5559 5.18276 88.9997 5.18576L88.4015 5.197Z" fill="white"/>
<path d="M99.8477 32.1827V5.9413H105.71V7.1804C106.172 6.7562 106.698 6.40714 107.269 6.14595C107.762 5.91647 108.299 5.79385 108.843 5.78613C110.237 5.78613 111.244 6.28987 111.863 7.29734C112.482 8.30481 112.792 9.96893 112.792 12.2897V16.6839H107.539V12.2132C107.565 11.8275 107.496 11.4411 107.336 11.0888C107.275 10.9772 107.184 10.885 107.073 10.8229C106.962 10.7608 106.836 10.7314 106.709 10.738C106.564 10.7215 106.417 10.7413 106.282 10.7954C106.146 10.8496 106.026 10.9365 105.933 11.0484C105.792 11.2552 105.721 11.6428 105.719 12.211V32.1804L99.8477 32.1827Z" fill="white"/>
<path d="M114.622 12.5213C114.622 9.48993 115.025 7.60992 115.832 6.8813C116.638 6.15269 118.5 5.78763 121.416 5.78613C124.383 5.78613 126.257 6.17369 127.038 6.94878C127.819 7.72387 128.2 9.58138 128.182 12.5213V25.6027C128.182 28.6011 127.792 30.4751 127.011 31.2247C126.23 31.9743 124.375 32.3491 121.447 32.3491C118.441 32.3491 116.551 31.9593 115.776 31.1797C115 30.4001 114.614 28.5449 114.615 25.6139L114.622 12.5213ZM120.485 11.8827V26.2751C120.485 26.8687 120.557 27.2803 120.709 27.5141C120.786 27.6319 120.893 27.7266 121.02 27.788C121.146 27.8494 121.287 27.8753 121.427 27.8627C121.552 27.8708 121.677 27.8514 121.793 27.8059C121.91 27.7605 122.015 27.6901 122.101 27.5996C122.273 27.3987 122.36 27.1392 122.344 26.8755V11.8759C122.344 11.2762 122.277 10.8632 122.142 10.6368C122.064 10.524 121.958 10.4341 121.834 10.3764C121.709 10.3186 121.572 10.2952 121.436 10.3085C121.31 10.301 121.184 10.3194 121.066 10.3627C120.947 10.4061 120.839 10.4734 120.748 10.5604C120.573 10.7641 120.486 11.0282 120.505 11.2957L120.485 11.8827Z" fill="white"/>
<path d="M133.489 32.1827L129.291 0H135.716L137.263 21.4064L138.851 0.00225101H145.255L141.018 32.1827H133.489Z" fill="white"/>
<path d="M146.65 3.93092V0H152.515V3.93092H146.65ZM146.65 32.1827V5.94136H152.515V32.1827H146.65Z" fill="white"/>
<path d="M154.992 22.7554H160.854V26.277C160.854 26.8707 160.926 27.2822 161.079 27.5161C161.156 27.6337 161.262 27.7283 161.388 27.7897C161.514 27.8511 161.655 27.877 161.794 27.8647C161.921 27.8718 162.047 27.8502 162.164 27.8015C162.281 27.7528 162.385 27.6783 162.469 27.5836C162.644 27.3541 162.731 27.0689 162.712 26.7808V23.2951C162.712 22.586 161.854 21.8364 160.137 21.0463C159.193 20.625 158.276 20.1474 157.389 19.616C156.447 19.0089 155.816 18.4092 155.493 17.817C155.171 17.2248 155.01 16.0082 155.01 14.1672V11.2437C155.01 9.03839 155.416 7.57442 156.229 6.8518C157.041 6.12919 158.899 5.76712 161.801 5.76562C164.77 5.76562 166.644 6.15317 167.423 6.92826C168.203 7.70335 168.59 9.56087 168.584 12.5008V14.8621H162.694V11.8824C162.694 11.2257 162.622 10.7985 162.469 10.6051C162.316 10.4117 162.062 10.315 161.675 10.315C161.55 10.3049 161.424 10.3294 161.311 10.3857C161.199 10.4419 161.104 10.5279 161.037 10.6343C160.909 10.8472 160.845 11.2632 160.843 11.8824V13.5465C160.843 14.8508 161.676 15.8958 163.342 16.6813C163.857 16.9287 164.27 17.1311 164.578 17.2818C166.256 18.1078 167.336 18.85 167.819 19.5081C168.302 20.1663 168.544 21.0883 168.545 22.2741V25.6024C168.545 28.6008 168.156 30.4748 167.376 31.2244C166.596 31.974 164.742 32.3488 161.812 32.3488C158.806 32.3488 156.916 31.959 156.141 31.1794C155.366 30.3999 154.979 28.5446 154.98 25.6136L154.992 22.7554Z" fill="white"/>
<path d="M171.051 3.93092V0H176.916V3.93092H171.051ZM171.051 32.1827V5.94136H176.916V32.1827H171.051Z" fill="white"/>
<path d="M179.393 12.5213C179.393 9.48993 179.796 7.60992 180.602 6.8813C181.409 6.15269 183.27 5.78763 186.186 5.78613C189.153 5.78613 191.027 6.17369 191.808 6.94878C192.589 7.72387 192.976 9.58138 192.969 12.5213V25.6027C192.969 28.6011 192.578 30.4751 191.797 31.2247C191.016 31.9743 189.161 32.3491 186.233 32.3491C183.235 32.3491 181.345 31.9593 180.564 31.1797C179.783 30.4001 179.396 28.5449 179.402 25.6139L179.393 12.5213ZM185.257 11.8827V26.2751C185.257 26.8687 185.327 27.2803 185.482 27.5141C185.559 27.6317 185.666 27.7263 185.792 27.7877C185.918 27.8492 186.058 27.8751 186.197 27.8627C186.322 27.8703 186.447 27.8507 186.564 27.8053C186.68 27.7599 186.785 27.6897 186.872 27.5996C187.044 27.3987 187.131 27.1392 187.115 26.8755V11.8759C187.115 11.271 187.045 10.8572 186.91 10.6368C186.833 10.5239 186.726 10.4338 186.602 10.376C186.478 10.3183 186.341 10.295 186.204 10.3085C186.081 10.3018 185.957 10.3206 185.841 10.364C185.725 10.4073 185.619 10.4742 185.53 10.5604C185.355 10.7641 185.268 11.0282 185.287 11.2957L185.257 11.8827Z" fill="white"/>
<path d="M195.455 32.1827V5.94131H201.32V7.18041C201.78 6.74394 202.313 6.39086 202.894 6.13695C203.435 5.90439 204.019 5.78501 204.608 5.78614C206.155 5.78614 207.274 6.28614 207.965 7.28611C208.656 8.28608 209.001 9.95395 209 12.2897V32.1827H203.137V12.2132C203.164 11.8275 203.094 11.4411 202.935 11.0888C202.874 10.9768 202.782 10.8844 202.671 10.8223C202.559 10.7602 202.432 10.731 202.305 10.738C202.16 10.7217 202.014 10.7415 201.879 10.7957C201.744 10.8499 201.625 10.9367 201.531 11.0484C201.389 11.2553 201.318 11.6428 201.32 12.211V32.1804L195.455 32.1827Z" fill="white"/>
<path d="M134.9 37.5547V38.9467H132.032V48.4749H130.362V38.9467H127.508V37.5547H134.9Z" fill="white"/>
<path d="M142.5 46.6131V48.0388C141.9 48.3851 141.1 48.5575 140.1 48.556C138.826 48.556 137.811 48.173 137.056 47.4069C136.3 46.6408 135.921 45.6356 135.92 44.3912C135.92 43.0749 136.265 42.0405 136.957 41.2879C137.29 40.9212 137.699 40.6309 138.155 40.4368C138.611 40.2428 139.104 40.1495 139.599 40.1635C140.648 40.1635 141.48 40.4903 142.093 41.144C142.711 41.7961 143.017 42.7406 143.017 43.9707C143.016 44.3244 142.983 44.6774 142.92 45.0254H137.523C137.556 45.3442 137.653 45.6531 137.808 45.9339C137.962 46.2147 138.171 46.4617 138.423 46.6603C138.968 47.0551 139.63 47.2554 140.303 47.2292C141.082 47.259 141.85 47.0434 142.5 46.6131ZM141.479 43.7773V43.485C141.487 42.9525 141.309 42.434 140.975 42.0187C140.806 41.8327 140.596 41.6872 140.363 41.593C140.129 41.4988 139.877 41.4583 139.626 41.4745C139.366 41.4719 139.108 41.5231 138.868 41.6249C138.629 41.7266 138.413 41.8768 138.234 42.066C137.81 42.541 137.553 43.1422 137.503 43.7773H141.479Z" fill="white"/>
<path d="M146.064 44.41C146.057 45.1635 146.328 45.8932 146.827 46.4586C147.312 46.9984 147.994 47.2682 148.871 47.2682C149.515 47.2696 150.145 47.0837 150.686 46.733V48.1587C150.069 48.505 149.368 48.6738 148.662 48.6467C147.375 48.6467 146.349 48.2412 145.583 47.4301C145.201 47.0252 144.903 46.5491 144.706 46.029C144.508 45.5088 144.415 44.9549 144.432 44.3987C144.41 43.2796 144.825 42.1962 145.59 41.3786C146.363 40.542 147.413 40.123 148.738 40.1215C149.418 40.1124 150.091 40.2666 150.699 40.5712V42.0307C150.16 41.6929 149.536 41.5179 148.9 41.527C148.52 41.5099 148.141 41.5732 147.788 41.7127C147.435 41.8523 147.115 42.0648 146.849 42.3366C146.588 42.6137 146.385 42.9394 146.25 43.2952C146.116 43.651 146.052 44.0297 146.064 44.41Z" fill="white"/>
<path d="M154.103 37.0195V41.6701C154.57 40.6536 155.418 40.1461 156.649 40.1476C157.004 40.1318 157.359 40.1897 157.691 40.3178C158.022 40.446 158.324 40.6415 158.576 40.892C159.062 41.3897 159.306 42.0809 159.307 42.9654V48.475H157.717V43.2892C157.748 42.8153 157.594 42.3479 157.288 41.9849C157.143 41.8341 156.968 41.7159 156.774 41.6383C156.58 41.5607 156.372 41.5256 156.163 41.5351C155.894 41.5322 155.627 41.5844 155.379 41.6884C155.131 41.7925 154.906 41.9462 154.719 42.1401C154.303 42.5516 154.094 43.1768 154.094 44.0201V48.475H152.516V37.0195H154.103Z" fill="white"/>
<path d="M163.038 40.2605V41.6705C163.524 40.654 164.377 40.1466 165.597 40.1481C165.953 40.1299 166.309 40.1868 166.641 40.3151C166.974 40.4433 167.275 40.64 167.527 40.8924C168.002 41.3902 168.24 42.0648 168.24 42.9164V48.4732H166.636V43.2896C166.669 42.8134 166.515 42.3432 166.207 41.9786C166.059 41.8273 165.88 41.709 165.684 41.6315C165.487 41.554 165.276 41.519 165.064 41.5288C164.79 41.5268 164.519 41.5845 164.27 41.6979C164.021 41.8113 163.799 41.9777 163.621 42.1855C163.222 42.6352 163.022 43.2357 163.022 44.025V48.4799H161.441V40.2605H163.038Z" fill="white"/>
<path d="M173.807 48.6166C172.595 48.6166 171.646 48.2231 170.953 47.4337C170.261 46.6444 169.917 45.6347 169.917 44.4361C169.878 43.3152 170.26 42.2204 170.987 41.3664C171.336 40.9648 171.77 40.6464 172.258 40.4347C172.746 40.223 173.276 40.1233 173.807 40.1431C175.06 40.1431 176.027 40.5396 176.708 41.3327C177.389 42.1258 177.728 43.1385 177.727 44.3708C177.727 45.6032 177.379 46.6189 176.683 47.418C175.988 48.2171 175.029 48.6166 173.807 48.6166ZM173.791 41.4856C173.47 41.4739 173.151 41.5446 172.864 41.691C172.577 41.8374 172.333 42.0547 172.154 42.3222C171.749 42.9326 171.545 43.6543 171.57 44.3866C171.545 45.1168 171.756 45.8357 172.17 46.4375C172.351 46.7029 172.596 46.9184 172.882 47.0643C173.168 47.2101 173.486 47.2815 173.807 47.2718C174.132 47.2892 174.457 47.2241 174.75 47.0826C175.043 46.9411 175.296 46.7276 175.485 46.4622C175.888 45.8538 176.089 45.1339 176.06 44.4046C176.092 43.6654 175.899 42.934 175.507 42.3064C175.14 41.7637 174.568 41.4916 173.791 41.4901V41.4856Z" fill="white"/>
<path d="M179.576 48.475V37.0195H181.18V48.475H179.576Z" fill="white"/>
<path d="M186.918 48.6166C185.708 48.6166 184.758 48.2223 184.067 47.4337C183.376 46.6451 183.03 45.6459 183.03 44.436C182.992 43.3152 183.373 42.2204 184.1 41.3664C184.449 40.9648 184.883 40.6464 185.37 40.4347C185.858 40.223 186.387 40.1233 186.918 40.1431C188.173 40.1431 189.14 40.5396 189.819 41.3327C190.498 42.1258 190.839 43.1385 190.84 44.3708C190.84 45.6032 190.492 46.6189 189.797 47.418C189.101 48.217 188.142 48.6166 186.918 48.6166ZM186.902 41.4856C186.581 41.474 186.262 41.5448 185.976 41.6913C185.69 41.8377 185.446 42.0549 185.268 42.3222C184.862 42.9325 184.658 43.6543 184.683 44.3866C184.659 45.1168 184.869 45.8357 185.283 46.4375C185.464 46.7029 185.708 46.9184 185.994 47.0643C186.28 47.2101 186.597 47.2815 186.918 47.2718C187.243 47.2896 187.568 47.2247 187.861 47.0832C188.155 46.9416 188.407 46.728 188.596 46.4622C189 45.8542 189.201 45.134 189.171 44.4046C189.203 43.6657 189.011 42.9347 188.621 42.3064C188.255 41.7637 187.682 41.4916 186.902 41.4901V41.4856Z" fill="white"/>
<path d="M197.954 40.2601H199.541V47.7778C199.541 49.0432 199.182 49.9966 198.464 50.6383C197.746 51.28 196.825 51.6016 195.7 51.6031C194.78 51.6322 193.865 51.449 193.026 51.0678V49.4644C193.779 49.9329 194.653 50.1677 195.538 50.1391C197.149 50.1391 197.954 49.3445 197.954 47.7553V46.9143C197.718 47.3348 197.371 47.6818 196.95 47.9164C196.529 48.1511 196.051 48.2643 195.57 48.2433C195.123 48.2484 194.68 48.1594 194.269 47.9819C193.859 47.8045 193.491 47.5426 193.188 47.2134C192.529 46.5282 192.2 45.559 192.201 44.3057C192.201 43.0943 192.509 42.0973 193.123 41.3147C193.408 40.9383 193.779 40.6353 194.204 40.4311C194.63 40.2269 195.098 40.1274 195.57 40.1409C196.66 40.1409 197.454 40.6049 197.954 41.5329V40.2601ZM195.871 46.8873C196.148 46.8878 196.422 46.8296 196.675 46.7164C196.928 46.6032 197.153 46.4376 197.337 46.2306C197.754 45.7944 197.963 45.1812 197.963 44.3911C197.963 43.4196 197.765 42.7015 197.371 42.2368C197.2 42.0194 196.983 41.8438 196.734 41.723C196.486 41.6022 196.213 41.5395 195.936 41.5396C195.642 41.5297 195.351 41.5934 195.087 41.725C194.824 41.8566 194.598 42.0518 194.43 42.293C194.038 42.8785 193.844 43.5748 193.879 44.2787C193.879 45.1332 194.074 45.7809 194.47 46.2239C194.64 46.4311 194.854 46.598 195.096 46.7127C195.339 46.8274 195.603 46.887 195.871 46.8873Z" fill="white"/>
<path d="M203.95 48.298L200.676 40.2607H202.443L203.464 42.9346L204.744 46.4022C204.84 46.0784 205.229 44.9225 205.911 42.9346L206.833 40.2607H208.52L205.553 48.2508C204.765 50.3497 203.561 51.3991 201.942 51.3991C201.691 51.4038 201.44 51.3766 201.195 51.3181V49.9666C201.375 50.0116 201.561 50.0335 201.746 50.0318C202.794 50.0318 203.529 49.4539 203.95 48.298Z" fill="white"/>
</svg>
